<svg xmlns="http://www.w3.org/2000/svg" data-name="Layer 1" viewBox="0 0 512 512"><path d="M466 348.044V311.7a74.546 74.546 0 0 1-15.431 7.467c-16.858 6.1-38.957 9.459-62.549 9.459s-45.764-3.359-62.624-9.459A74.215 74.215 0 0 1 310 311.7v37.56c0 8.335 26.565 23.884 78 23.884s78-15.549 78-23.884zM387.913 256.111c51.435 0 78.34-15.55 78.34-23.885s-26.9-23.885-78.34-23.885-78.34 15.549-78.34 23.885S336.479 256.111 387.913 256.111z"/><path d="M388.02 387.147c-23.594 0-45.764-3.359-62.624-9.459a74.215 74.215 0 0 1-15.4-7.467v37.967c0 8.335 26.66 23.884 78.1 23.884a205.027 205.027 0 0 0 38.417-3.464c12.659-2.429 23.176-6 30.488-10.3 5.8-3.416 9-7.1 9-10.118V370.221a74.444 74.444 0 0 1-15.431 7.467C433.711 383.788 411.613 387.147 388.02 387.147zM466 253.178a74.523 74.523 0 0 1-15.434 7.469c-16.863 6.1-38.96 9.464-62.546 9.464s-45.756-3.361-62.62-9.464a74.154 74.154 0 0 1-15.4-7.469v37.567c0 8.335 26.565 23.884 78 23.884s78-15.549 78-23.884zM79.626 147.548c24.081 8.715 56.241 13.514 90.558 13.514s66.477-4.8 90.558-13.514c21.214-7.677 33.879-17.791 33.879-27.053s-12.665-19.376-33.879-27.054c-24.081-8.715-56.242-13.515-90.558-13.515s-66.477 4.8-90.558 13.515c-21.214 7.678-33.879 17.791-33.879 27.054S58.412 139.871 79.626 147.548zM295 298.874V235.412a114.518 114.518 0 0 1-29.269 15.435c-25.562 9.249-59.574 14.343-95.484 14.343s-69.7-5.094-95.263-14.343C62.8 246.439 53 241.22 46 235.412V300.75c0 9.269 12.584 19.385 33.8 27.06 24.073 8.711 56.157 13.508 90.483 13.508s66.585-4.8 90.659-13.508C282.147 320.135 295 310.02 295 300.75z"/><path d="M295 145.275a114.533 114.533 0 0 1-29.273 15.437c-25.57 9.254-59.581 14.35-95.48 14.35s-69.688-5.1-95.259-14.35C62.807 156.3 53 151.084 46 145.275v65.348c0 9.269 12.584 19.384 33.8 27.059 24.073 8.711 56.157 13.508 90.483 13.508s66.585-4.8 90.659-13.508c21.21-7.675 34.063-17.79 34.063-27.059zM170.247 355.318c-35.909 0-69.7-5.094-95.263-14.343C62.8 336.567 53 331.348 46 325.539v65.966c0 9.269 12.584 19.384 33.8 27.058 24.073 8.711 56.156 13.508 90.483 13.508a324.745 324.745 0 0 0 60.33-5.4C268.392 419.423 295 404.957 295 391.5V325.54a114.518 114.518 0 0 1-29.269 15.435C240.169 350.224 206.157 355.318 170.247 355.318z"/></svg>