<svg xmlns="http://www.w3.org/2000/svg" id="Layer_1" enable-background="new 0 0 64 64" viewBox="0 0 64 64"><path fill="#dadde1" d="M28.71 50.32c0 .73-.35 1.36-.89 1.76l-.01.01v2.43c0 .48-.4.88-.88.88h-.84c-.48 0-.88-.4-.88-.88v-2.43c-.01-.01-.02-.02-.03-.03-.53-.39-.87-1.02-.87-1.74 0-1.21.99-2.2 2.2-2.2C27.72 48.12 28.71 49.11 28.71 50.32zM49.56 50.32c0 .73-.35 1.36-.89 1.76l-.01.01v2.43c0 .48-.4.88-.88.88h-.84c-.48 0-.88-.4-.88-.88v-2.43l-.01-.01c-.54-.4-.89-1.03-.89-1.76 0-1.21.98-2.2 2.2-2.2C48.57 48.12 49.56 49.11 49.56 50.32z"/><path fill="#f2f2f2" d="M52.62,12.49v17.02H15.99c-1.46,0-2.64,1.18-2.64,2.64v7.62c0,0.72,0.06,1.42,0.19,2.1
			c0.25,1.55,0.81,3,1.6,4.3v10.1H6.63c-1.77,0-3.35-0.86-4.32-2.19c-0.65-0.88-1.03-1.98-1.03-3.15V12.49H52.62z"/><path fill="#76bfe9" d="M52.62,5.35v7.14H1.28L12.55,0h34.71c1.36,0,2.61,0.51,3.55,1.35C51.92,2.32,52.62,3.75,52.62,5.35z"/><path fill="#5dafd8" d="M12.55,0L1.28,12.49h7.87c1.74,0,3.48-1.64,3.4-3.33V0z"/><path fill="#f2f2f2" d="M47.96,6.24c0,1.21-0.98,2.2-2.2,2.2c-1.21,0-2.2-0.98-2.2-2.2s0.98-2.2,2.2-2.2
			C46.98,4.05,47.96,5.03,47.96,6.24z"/><circle cx="40.11" cy="6.24" r="2.2" fill="#f2f2f2"/><circle cx="34.46" cy="6.24" r="2.2" fill="#f2f2f2"/><g><path fill="#445c6c" d="M60.93,46.17v15.19c0,1.46-1.18,2.64-2.64,2.64H17.77c-1.46,0-2.63-1.18-2.63-2.64V46.17
				c2.08,3.41,5.78,5.73,10.04,5.89l0.03,0.03v2.43c0,0.48,0.39,0.88,0.87,0.88h0.85c0.48,0,0.88-0.4,0.88-0.88v-2.43l0.01-0.01
				h18.23l0.01,0.01v2.43c0,0.48,0.39,0.88,0.88,0.88h0.84c0.48,0,0.88-0.4,0.88-0.88v-2.43l0.01-0.01h1.74
				c0.72,0,1.43-0.06,2.12-0.18C56.08,51.28,59.12,49.14,60.93,46.17z"/><path fill="#445c6c" d="M25.66 52.08h2.15l-.01.01v2.43c0 .48-.4.88-.88.88h-.84c-.48 0-.88-.4-.88-.88v-2.43c-.01-.01-.02-.02-.03-.03C25.34 52.08 25.5 52.08 25.66 52.08zM48.67 52.08L48.67 52.08l-.01 2.44c0 .48-.4.88-.88.88h-.84c-.48 0-.88-.4-.88-.88v-2.43l-.01-.01H48.67z"/><path fill="#7c7c7c" d="M44.72,23.53H31.34c-0.43,0-0.83,0.1-1.19,0.29c-0.56,0.28-1.01,0.77-1.25,1.35
				c-0.12,0.31-0.19,0.65-0.19,1v3.34h18.65v-3.34C47.36,24.72,46.18,23.53,44.72,23.53z M45.6,29.47H30.46v-1.78
				c0-1.45,1.18-1.75,2.64-1.75h9.86c1.46,0,2.64,0.3,2.64,1.75V29.47z"/><path fill="#788d9a" d="M62.72,32.15v7.62c0,2.34-0.66,4.53-1.79,6.4c-1.81,2.97-4.85,5.11-8.4,5.73c-0.69,0.12-1.4,0.18-2.12,0.18
				h-1.74c0.53-0.4,0.89-1.03,0.89-1.76c0-1.21-0.99-2.2-2.2-2.2c-1.22,0-2.2,0.99-2.2,2.2c0,0.73,0.35,1.36,0.89,1.76H27.82
				c0.53-0.4,0.89-1.03,0.89-1.76c0-1.21-0.99-2.2-2.2-2.2c-1.22,0-2.2,0.99-2.2,2.2c0,0.72,0.34,1.36,0.87,1.74
				c-4.26-0.16-7.96-2.48-10.04-5.89c-0.79-1.3-1.35-2.75-1.6-4.3c-0.13-0.68-0.19-1.38-0.19-2.1v-7.62c0-1.46,1.18-2.64,2.64-2.64
				h44.09C61.54,29.51,62.72,30.69,62.72,32.15z"/><path fill="#788d9a" d="M28.71 50.32c0 .73-.35 1.36-.89 1.76h-2.15c-.17 0-.33 0-.48-.02-.53-.39-.87-1.02-.87-1.74 0-1.21.99-2.2 2.2-2.2C27.72 48.12 28.71 49.11 28.71 50.32zM49.56 50.32c0 .73-.35 1.36-.89 1.76h-2.62c-.54-.4-.89-1.03-.89-1.76 0-1.21.98-2.2 2.2-2.2C48.57 48.12 49.56 49.11 49.56 50.32z"/><path fill="#f1b974" d="M49.56 50.32c0 .73-.35 1.36-.89 1.76l-.01.01v2.43c0 .48-.4.88-.88.88h-.84c-.48 0-.88-.4-.88-.88v-2.43l-.01-.01c-.54-.4-.89-1.03-.89-1.76 0-1.21.98-2.2 2.2-2.2C48.57 48.12 49.56 49.11 49.56 50.32zM28.71 50.32c0 .73-.35 1.36-.89 1.76l-.01.01v2.43c0 .48-.4.88-.88.88h-.84c-.48 0-.88-.4-.88-.88v-2.43c-.01-.01-.02-.02-.03-.03-.53-.39-.87-1.02-.87-1.74 0-1.21.99-2.2 2.2-2.2C27.72 48.12 28.71 49.11 28.71 50.32z"/></g><path d="M62.72,32.15v7.62c0,2.34-0.66,4.53-1.79,6.4v15.19c0,1.46-1.18,2.64-2.64,2.64H17.77
		c-1.46,0-2.63-1.18-2.63-2.64v-5.09H6.63c-1.77,0-3.35-0.86-4.32-2.19l11.23-12.21l11.37-12.36l3.99-4.34l1.25-1.35l10.42-11.33
		l4.03-4.38l2.92-3.18l3.29-3.58c1.11,0.97,1.81,2.4,1.81,4v24.16h7.46C61.54,29.51,62.72,30.69,62.72,32.15z" opacity=".1"/></svg>