<svg xmlns="http://www.w3.org/2000/svg" xmlns:serif="http://www.serif.com/" fill-rule="evenodd" stroke-linejoin="round" stroke-miterlimit="1.414" clip-rule="evenodd" viewBox="0 0 453 361"><rect width="451.858" height="359.469" x=".6" y=".628" fill="none" serif:id="22. SSH"/><path fill="#cce6ff" fill-opacity=".259" d="M434.395,53.931c0,-8.279 -6.721,-15 -15,-15l-371,0c-8.279,0 -15,6.721 -15,15l0,236c0,8.279 6.721,15 15,15l371,0c8.279,0 15,-6.721 15,-15l0,-236Z" serif:id="Rounded Rectangle 1 copy"/><path fill="url(#_Linear1)" d="M422.395,38.931c0,-8.279 -6.721,-15 -15,-15l-371,0c-8.279,0 -15,6.721 -15,15l0,236c0,8.279 6.721,15 15,15l371,0c8.279,0 15,-6.721 15,-15l0,-236Z" serif:id="Rounded Rectangle 1"/><path fill="url(#_Linear2)" d="M400.395,71.931l-358,0l0,189c0,6.071 4.929,11 11,11l339,0c4.415,0 8,-3.585 8,-8l0,-192Z" serif:id="Rounded Rectangle 2"/><circle cx="73.395" cy="46.931" r="8" fill="#0084ff" serif:id="Ellipse 1"/><circle cx="50.395" cy="46.931" r="8" fill="#55d7ff" serif:id="Ellipse 1 copy"/><circle cx="96.395" cy="46.931" r="8" fill="#0bbc00" serif:id="Ellipse 1 copy 2"/><path fill="#e5f1ff" d="M337.395,46.931c0,-4.415 -3.585,-8 -8,-8l-145,0c-4.415,0 -8,3.585 -8,8c0,4.415 3.585,8 8,8l145,0c4.415,0 8,-3.585 8,-8Z" serif:id="Rounded Rectangle 3"/><path fill="#e5f1ff" d="M400.395,46.931c0,-4.415 -3.585,-8 -8,-8l-9,0c-4.415,0 -8,3.585 -8,8c0,4.415 3.585,8 8,8l9,0c4.415,0 8,-3.585 8,-8Z" serif:id="Rounded Rectangle 3 copy"/><path fill="#e5f1ff" d="M369.395,46.931c0,-4.415 -3.585,-8 -8,-8l-9,0c-4.415,0 -8,3.585 -8,8c0,4.415 3.585,8 8,8l9,0c4.415,0 8,-3.585 8,-8Z" serif:id="Rounded Rectangle 3 copy 2"/><path fill="none" stroke="#fefeff" stroke-width="22" d="M344.39,177.203c-22.213,0 -40.283,18.07 -40.282,40.283c0,15.173 8.545,28.988 21.973,35.846l0.002,64.158c0,0.972 0.385,1.902 1.073,2.59l14.649,14.65c1.432,1.431 3.748,1.431 5.179,0l14.649,-14.649c0.688,-0.688 1.072,-1.618 1.072,-2.589l-0.003,-7.326c0,-1.118 -0.51,-2.175 -1.388,-2.871l-4.39,-3.479l4.938,-5.966c1.123,-1.355 1.123,-3.313 0,-4.668l-4.939,-5.966l4.393,-3.477c0.829,-0.632 1.32,-1.613 1.383,-2.657c0.058,-1.045 -0.329,-2.064 -1.067,-2.802l-4.822,-4.822l4.734,-4.734c0.688,-0.687 1.072,-1.618 1.072,-2.589l0.087,-13.194c13.428,-6.852 21.978,-20.275 21.972,-35.453c0,-22.213 -18.072,-40.284 -40.285,-40.285Zm10.986,28.637c0,6.059 -4.925,10.985 -10.985,10.985c-6.059,0 -10.985,-4.926 -10.985,-10.985c0,-6.059 4.926,-10.985 10.985,-10.985c6.059,0 10.985,4.927 10.985,10.985Z" serif:id="Forma 1"/><path fill="url(#_Linear3)" fill-rule="nonzero" d="M344.39,177.203c-22.213,0 -40.283,18.07 -40.282,40.283c0,15.173 8.545,28.988 21.973,35.846l0.002,64.158c0,0.972 0.385,1.902 1.073,2.59l14.649,14.65c1.432,1.431 3.748,1.431 5.179,0l14.649,-14.649c0.688,-0.688 1.072,-1.618 1.072,-2.589l-0.003,-7.326c0,-1.118 -0.51,-2.175 -1.388,-2.871l-4.39,-3.479l4.938,-5.966c1.123,-1.355 1.123,-3.313 0,-4.668l-4.939,-5.966l4.393,-3.477c0.829,-0.632 1.32,-1.613 1.383,-2.657c0.058,-1.045 -0.329,-2.064 -1.067,-2.802l-4.822,-4.822l4.734,-4.734c0.688,-0.687 1.072,-1.618 1.072,-2.589l0.087,-13.194c13.428,-6.852 21.978,-20.275 21.972,-35.453c0,-22.213 -18.072,-40.284 -40.285,-40.285Zm10.986,28.637c0,6.059 -4.925,10.985 -10.985,10.985c-6.059,0 -10.985,-4.926 -10.985,-10.985c0,-6.059 4.926,-10.985 10.985,-10.985c6.059,0 10.985,4.927 10.985,10.985Z"/><path fill="#fff" fill-opacity=".376" fill-rule="nonzero" d="M345.394 181.389c2.623.245 3.557 5.215-.149 5.355-1.806.009-2.334.064-3.485.193-9.573 1.073-18.437 6.895-23.103 15.432 0 0-1.11 1.544-2.64 1.379-1.755-.19-3-2.096-2.063-3.95.826-1.512 1.067-1.865 1.651-2.739 6.396-9.572 17.685-15.53 29.31-15.673.24-.002.239-.004.479.003zM312.737 211.148c.459.029.608.08.874.186 2.234.882 1.426 4.556 1.824 7.928.228 1.937.663 3.848 1.279 5.701 0 0 .239 2.7-1.645 3.37-1.471.523-3.051-.461-3.595-2.15-1.313-4.154-2.279-8.654-1.48-12.857.242-1.274 1.036-2.212 2.743-2.178z"/><path fill="#003c90" fill-opacity=".482" fill-rule="nonzero" d="M368.065 236.944c1.835.209 1.809.729 2.181 1.465.501.994.462 2.029-.455 3.057-1.122 1.175-1.38 1.396-2.086 2.026-8.588 7.654-20.96 10.648-32.279 7.824-1.678-.419-3.132-2.002-2.394-3.776.501-1.206 1.647-1.906 3.157-1.564 1.75.461 2.271.542 3.415.716 9.506 1.441 19.586-1.885 26.31-8.927 0 0 1.84-.835 2.151-.821zM376.433 213.609c2.401.157 2.704 3.386 2.589 6.046-.127 2.941-.643 5.864-1.52 8.667-.534 1.71-2.159 3.175-3.911 2.375-2.392-1.092-.731-4.848-.214-8.273.298-1.977.381-3.982.261-5.977 0 0 .244-2.899 2.795-2.838z"/><path fill="#70d1ff" fill-opacity=".702" d="M341.395,327.931l0,-71l-11,-1l0,59" serif:id="Shape 2"/><g serif:id="&gt;_"><path fill="#00c400" fill-rule="nonzero" d="M192.796 162.415c0-2.928-1.83-5.856-4.636-7.076l-44.042-19.764c-.61-.244-1.342-.366-1.952-.366-2.684 0-5.368 2.074-5.246 5.246 0 1.952 1.098 3.904 3.172 4.758l40.87 17.446-40.87 17.324c-1.952.854-3.05 2.684-3.05 4.758 0 3.05 2.562 5.124 5.124 5.124.61 0 1.342-.122 1.952-.366l44.042-19.642c2.806-1.22 4.636-4.148 4.636-7.442zM265.508 213.411c0-2.806-2.318-5.124-5.002-5.124l-60.878 0c-2.806 0-5.124 2.318-5.124 5.124 0 2.928 2.318 5.246 5.124 5.246l60.878 0c2.684 0 5.002-2.318 5.002-5.246z"/></g><defs><linearGradient id="_Linear1" x2="1" gradientTransform="rotate(90 -58.533 93.414) scale(256.206)" gradientUnits="userSpaceOnUse"><stop offset="0" stop-color="#cce6ff"/><stop offset="1" stop-color="#1d98ff"/></linearGradient><linearGradient id="_Linear2" x2="1" gradientTransform="rotate(90 22.902 112.967) scale(304.845)" gradientUnits="userSpaceOnUse"><stop offset="0" stop-color="#fff"/><stop offset="1" stop-color="#d0e4fc"/></linearGradient><linearGradient id="_Linear3" x2="1" gradientTransform="scale(190.0375) rotate(62.037 -.214 2.096)" gradientUnits="userSpaceOnUse"><stop offset="0" stop-color="#0084ff"/><stop offset="1" stop-color="#004fb8"/></linearGradient></defs></svg>